<svg width="1920" height="70" viewBox="0 0 1920 70" fill="none" xmlns="http://www.w3.org/2000/svg">
<g id="header">
<g id="Group 2583">
<path id="Path 1" d="M754.02 0H1163.82L1126.86 58.1C1126.86 58.1 1125.73 61.776 1119.75 66C1113.77 70.224 1110.28 69.95 1110.28 69.95H809.501C809.501 69.95 803.274 69.843 798.646 66.884C794.018 63.925 790.988 58.115 790.988 58.115L754.02 0Z" fill="url(#paint0_linear_613_22550)"/>
<path id="&#231;&#135;&#159;&#233;&#129;&#139;&#231;&#143;&#190;&#230;&#179;&#129;" d="M897.676 20.5156H901.363C901.301 22.474 901.051 24.1094 900.613 25.4219C902.53 26.5677 904.322 27.6615 905.988 28.7031L904.145 30.3594H908.082C907.645 29.7969 907.092 29.151 906.426 28.4219C908.53 27.526 909.884 26.5781 910.488 25.5781C911.113 24.6406 911.426 22.9427 911.426 20.4844H915.113C915.113 22.401 914.947 23.9948 914.613 25.2656C916.905 26.7031 918.759 27.8802 920.176 28.7969L918.395 30.3594H920.582V37.1719H916.832V33.2969H895.27V37.1094H891.457V30.3594H893.457C893.04 29.776 892.572 29.2031 892.051 28.6406C894.238 28.0365 895.707 27.151 896.457 25.9844C897.27 24.8385 897.676 23.0156 897.676 20.5156ZM893.551 42.7656H918.551V51.1719H914.488V50.2969H897.613V51.1719H893.551V42.7656ZM914.488 45.6406H897.613V47.3594H914.488V45.6406ZM901.145 24.5781C902.27 23.5365 903.249 22.5469 904.082 21.6094L905.895 22.7344L907.738 21.4844C908.676 22.526 909.582 23.5365 910.457 24.5156L908.301 26.2656C907.551 25.4115 906.759 24.5573 905.926 23.7031C904.988 24.5781 904.061 25.3698 903.145 26.0781L901.145 24.5781ZM912.27 37.3594H899.895V38.9219H912.27V37.3594ZM915.238 24.6094C915.988 23.901 916.967 22.8698 918.176 21.5156L920.645 23.1719C919.77 23.9844 918.645 24.9948 917.27 26.2031L915.238 24.6094ZM891.707 23.1406L894.082 21.5781C894.624 22.0781 895.551 23.099 896.863 24.6406L894.332 26.2656C893.457 25.099 892.582 24.0573 891.707 23.1406ZM913.457 27.7656C912.77 28.724 911.707 29.5885 910.27 30.3594H916.801C915.801 29.5469 914.686 28.6823 913.457 27.7656ZM899.301 27.8594C898.592 28.776 897.655 29.6094 896.488 30.3594H902.551C901.822 29.776 900.738 28.9427 899.301 27.8594ZM916.02 34.7969V41.4844H896.082V34.7969H916.02ZM929.488 44.5781C930.717 46.3906 934.145 47.224 939.77 47.0781V45.0781H930.77V42.2031H939.77V40.6719H932.145V29.5469H939.77V28.3281H935.395V25.8281H939.77V24.8281H943.52V25.8281H947.832V28.3281H943.52V29.5469H951.082V40.6719H943.52V42.2031H952.457V45.0781H943.52V47.0781C948.645 47.0781 951.999 47.026 953.582 46.9219C952.978 48.3802 952.467 49.6615 952.051 50.7656C945.967 50.7448 940.811 50.724 936.582 50.7031C932.52 50.7031 929.561 49.724 927.707 47.7656C926.832 48.6823 925.697 49.901 924.301 51.4219L922.52 46.8594C923.52 46.0469 924.509 45.2448 925.488 44.4531V35.4531H922.707V31.3281H929.488V44.5781ZM926.582 20.3594C928.29 22.6719 929.645 24.651 930.645 26.2969L926.832 28.5469C925.52 26.1927 924.28 24.151 923.113 22.4219L926.582 20.3594ZM935.801 33.8906H939.77V32.1719H935.801V33.8906ZM935.801 38.0469H939.77V36.3281H935.801V38.0469ZM947.426 32.1719H943.52V33.8906H947.426V32.1719ZM947.426 38.0469V36.3281H943.52V38.0469H947.426ZM948.77 24.2969H934.457V28.1719H931.27V21.4844H951.957V28.1719H948.77V24.2969ZM965.707 21.4844H984.02V41.5469H979.301V45.4531C979.301 46.5781 979.697 47.1406 980.488 47.1406C981.384 47.1615 981.853 46.7969 981.895 46.0469C981.999 45.276 982.124 43.974 982.27 42.1406C983.624 42.9115 984.811 43.4844 985.832 43.8594C985.624 45.3802 985.353 46.8385 985.02 48.2344C984.54 49.9427 983.467 50.8073 981.801 50.8281H978.895C976.561 50.8281 975.395 49.599 975.395 47.1406V41.5469H972.926V43.1406C972.926 47.349 969.999 50.1302 964.145 51.4844C963.27 49.8594 962.478 48.5469 961.77 47.5469C966.603 46.8385 969.02 45.2031 969.02 42.6406V41.5469H965.707V21.4844ZM955.27 48.2656L954.457 43.8281C955.624 43.5573 956.77 43.2865 957.895 43.0156V35.7344H954.957V31.5469H957.895V26.2344H954.707V22.0469H964.645V26.2344H961.801V31.5469H964.363V35.7344H961.801V41.9219C962.759 41.6302 963.697 41.3385 964.613 41.0469C964.53 42.6094 964.52 44.026 964.582 45.2969C961.207 46.3177 958.103 47.3073 955.27 48.2656ZM979.895 25.1719H969.832V27.1406H979.895V25.1719ZM969.832 32.5156H979.895V30.5781H969.832V32.5156ZM979.895 37.8594V35.9531H969.832V37.8594H979.895ZM1013.52 40.7969C1014.83 41.2344 1016.21 41.651 1017.64 42.0469C1017.42 43.8594 1017.18 45.3594 1016.93 46.5469C1016.38 49.1302 1014.95 50.4219 1012.61 50.4219H1010.46C1007.67 50.4219 1006.27 48.8906 1006.27 45.8281V36.8594H1004.02C1003.94 43.6719 1001.25 48.5052 995.957 51.3594C995.332 50.5052 994.301 49.2656 992.863 47.6406C997.384 45.6406 999.634 42.0469 999.613 36.8594H996.02V21.8281H1015.27V36.8594H1010.64V45.0156C1010.64 45.9531 1010.98 46.4219 1011.64 46.4219C1012.48 46.4219 1012.96 45.974 1013.08 45.0781C1013.25 43.5573 1013.39 42.1302 1013.52 40.7969ZM1010.89 32.9219V25.7656H1000.39V32.9219H1010.89ZM990.176 37.5156C992.009 38.3073 993.374 38.8594 994.27 39.1719C993.853 40.5885 992.707 44.5469 990.832 51.0469C989.457 50.4844 988.082 49.9948 986.707 49.5781C987.54 47.3698 988.697 43.349 990.176 37.5156ZM989.832 20.7656C991.79 22.1406 993.707 23.5677 995.582 25.0469L992.676 28.3281C991.009 26.8281 989.238 25.3073 987.363 23.7656L989.832 20.7656ZM989.113 28.9531C990.988 30.2656 992.686 31.5781 994.207 32.8906L991.176 36.1406C989.905 34.8698 988.29 33.4531 986.332 31.8906L989.113 28.9531Z" fill="white"/>
<g id="Group 45">
<path id="Path 2" d="M715.859 0H747.589L783.772 56.9H752.042L715.859 0Z" fill="#0099FF"/>
<path id="Path 3" d="M675.816 0H706.997L738.179 45.676H706.997L675.816 0Z" fill="#0099FF" fill-opacity="0.9"/>
<path id="Path 4" d="M640.805 0H668.499L692.375 34.975H664.681L640.805 0Z" fill="#0099FF" fill-opacity="0.8"/>
<path id="Path 5" d="M613 0H633.8L648.947 21.6H628.144L613 0Z" fill="#0099FF" fill-opacity="0.7"/>
<path id="Path 20" d="M585 0H605.8L620.947 21.6H600.144L585 0Z" fill="#0099FF" fill-opacity="0.6"/>
<path id="Path 21" d="M557 0H577.8L592.947 21.6H572.144L557 0Z" fill="#0099FF" fill-opacity="0.5"/>
<path id="Path 22" d="M530 0H550.8L565.947 21.6H545.144L530 0Z" fill="#0099FF" fill-opacity="0.4"/>
<path id="Path 23" d="M502 0H522.8L537.947 21.6H517.144L502 0Z" fill="#0099FF" fill-opacity="0.3"/>
<path id="Path 24" d="M474 0H494.8L509.947 21.6H489.144L474 0Z" fill="#0099FF" fill-opacity="0.15"/>
<path id="Path 25" d="M446 0H466.8L481.947 21.6H461.144L446 0Z" fill="#0099FF" fill-opacity="0.1"/>
</g>
<g id="Group 46">
<path id="Path 2_2" d="M1203.23 0H1171.5L1135.31 56.9H1167.04L1203.23 0Z" fill="#0099FF"/>
<path id="Path 3_2" d="M1243.27 0H1212.09L1180.91 45.676H1212.09L1243.27 0Z" fill="#0099FF" fill-opacity="0.9"/>
<path id="Path 4_2" d="M1278.28 0H1250.59L1226.71 34.975H1254.4L1278.28 0Z" fill="#0099FF" fill-opacity="0.8"/>
<path id="Path 5_2" d="M1306.09 0H1285.28L1270.14 21.6H1290.94L1306.09 0Z" fill="#0099FF" fill-opacity="0.7"/>
<path id="Path 20_2" d="M1334.09 0H1313.28L1298.14 21.6H1318.94L1334.09 0Z" fill="#0099FF" fill-opacity="0.6"/>
<path id="Path 21_2" d="M1362.09 0H1341.28L1326.14 21.6H1346.94L1362.09 0Z" fill="#0099FF" fill-opacity="0.5"/>
<path id="Path 22_2" d="M1389.09 0H1368.28L1353.14 21.6H1373.94L1389.09 0Z" fill="#0099FF" fill-opacity="0.4"/>
<path id="Path 23_2" d="M1417.09 0H1396.28L1381.14 21.6H1401.94L1417.09 0Z" fill="#0099FF" fill-opacity="0.3"/>
<path id="Path 24_2" d="M1445.09 0H1424.28L1409.14 21.6H1429.94L1445.09 0Z" fill="#0099FF" fill-opacity="0.15"/>
<path id="Path 25_2" d="M1473.09 0H1452.28L1437.14 21.6H1457.94L1473.09 0Z" fill="#0099FF" fill-opacity="0.1"/>
</g>
</g>
</g>
<defs>
<linearGradient id="paint0_linear_613_22550" x1="958.92" y1="0" x2="958.92" y2="69.9536" gradientUnits="userSpaceOnUse">
<stop stop-color="#006FB9"/>
<stop offset="1" stop-color="#00CDFF"/>
</linearGradient>
</defs>
</svg>
