<svg width="1920" height="70" viewBox="0 0 1920 70" fill="none" xmlns="http://www.w3.org/2000/svg">
<g id="header">
<g id="Group 2583">
<path id="Path 1" d="M754.02 0H1163.82L1126.86 58.1C1126.86 58.1 1125.73 61.776 1119.75 66C1113.77 70.224 1110.28 69.95 1110.28 69.95H809.501C809.501 69.95 803.274 69.843 798.646 66.884C794.018 63.925 790.988 58.115 790.988 58.115L754.02 0Z" fill="url(#paint0_linear_584_1692)"/>
<path id="&#231;&#135;&#159;&#233;&#129;&#139;&#231;&#143;&#190;&#230;&#179;&#129;" d="M896.457 20.6094L900.426 21.7656C899.717 24.0573 898.936 26.2552 898.082 28.3594V50.8906H894.238V36.2969C893.467 37.651 892.655 38.9531 891.801 40.2031C891.53 38.5365 891.113 36.6615 890.551 34.5781C892.884 30.9323 894.853 26.276 896.457 20.6094ZM899.457 37.0469H903.863V30.3594H900.457V26.3594H903.863V20.7344H908.113V26.3594H912.957V20.7344H917.207V26.3594H920.676V30.3594H917.207V37.0469H921.551V41.0469H899.457V37.0469ZM908.113 37.0469H912.957V30.3594H908.113V37.0469ZM899.52 48.4531C901.749 46.3073 903.759 43.974 905.551 41.4531L909.082 43.7969C907.29 46.1927 905.165 48.6615 902.707 51.2031C901.853 50.3906 900.79 49.474 899.52 48.4531ZM914.957 41.5781C917.124 43.724 919.29 46.0052 921.457 48.4219L917.832 51.1406C916.124 48.7656 914.092 46.3385 911.738 43.8594L914.957 41.5781ZM952.895 27.4844C950.54 29.8385 947.848 32.224 944.816 34.6406C947.191 38.2031 950.103 41.1302 953.551 43.4219C952.738 44.5677 951.863 46.0469 950.926 47.8594C946.645 44.7656 943.155 40.276 940.457 34.3906V45.6094C940.457 47.0573 940.139 48.1979 939.504 49.0312C938.879 49.8646 937.993 50.375 936.848 50.5625C935.712 50.7604 933.686 50.8594 930.77 50.8594C930.457 49.1094 930.082 47.4844 929.645 45.9844C931.145 46.151 932.634 46.2344 934.113 46.2344C935.447 46.2344 936.113 45.4219 936.113 43.7969V20.5156H940.457V25.75C941.103 27.5938 941.842 29.3333 942.676 30.9688C945.228 28.6979 947.447 26.5052 949.332 24.3906L952.895 27.4844ZM934.457 27.1094V30.8906C932.978 38.1406 929.665 43.974 924.52 48.3906C923.749 46.599 923.02 45.1302 922.332 43.9844C926.124 40.7552 928.79 36.5052 930.332 31.2344H923.395V27.1094H934.457ZM954.488 46.4844H957.613V39.4219H982.457V46.4844H985.582V50.1406H954.488V46.4844ZM956.332 21.4219H971.801V24.5469H967.207V26.3281H970.988V33.2344H967.207V35.1719H972.332V38.1719H956.332V21.4219ZM978.926 29.5469C979.676 30.5885 981.197 32.7344 983.488 35.9844L980.082 38.2031C978.686 35.9531 977.332 33.974 976.02 32.2656C975.603 33.2448 975.176 34.1823 974.738 35.0781C974.051 34.6198 972.811 33.9844 971.02 33.1719C972.915 28.5885 974.374 24.3281 975.395 20.3906L979.895 21.5469C979.603 22.526 979.301 23.474 978.988 24.3906H985.082V28.1406H977.676C977.301 29.1823 976.905 30.1927 976.488 31.1719L978.926 29.5469ZM967.801 30.5469V29.0156H960.02V30.5469H967.801ZM968.707 46.4844H971.363V42.7344H968.707V46.4844ZM962.02 46.4844H964.645V42.7344H962.02V46.4844ZM978.051 42.7344H975.426V46.4844H978.051V42.7344ZM960.02 35.1719H963.957V33.2344H960.02V35.1719ZM960.02 26.3281H963.957V24.5469H960.02V26.3281ZM989.801 20.6094C991.28 21.7344 992.603 22.7969 993.77 23.7969V21.5156H1006.02V43.5469H993.77V25.0156L991.52 27.4219C990.165 26.0052 988.728 24.6198 987.207 23.2656L989.801 20.6094ZM1012.74 20.3594H1016.36V46.5156C1016.36 49.2031 1015.09 50.5885 1012.55 50.6719C1011.49 50.7552 1010.31 50.776 1009.02 50.7344C1008.87 49.4844 1008.55 48.026 1008.05 46.3594C1009.09 46.4635 1010.12 46.526 1011.14 46.5469C1012.21 46.5885 1012.74 45.9844 1012.74 44.7344V20.3594ZM1007.71 23.1719H1010.89V44.0469H1007.71V23.1719ZM989.457 37.8281C990.624 38.3698 991.915 38.8594 993.332 39.2969C992.561 42.5469 991.686 46.4844 990.707 51.1094C989.353 50.6302 988.03 50.2031 986.738 49.8281C987.488 47.0573 988.395 43.0573 989.457 37.8281ZM996.676 43.7656L999.832 45.8906C998.249 47.8906 996.665 49.776 995.082 51.5469C993.79 50.4219 992.78 49.5885 992.051 49.0469C993.759 47.3177 995.301 45.5573 996.676 43.7656ZM988.957 28.7969C990.54 30.0052 992.124 31.3177 993.707 32.7344L990.926 35.9844C989.572 34.6302 988.072 33.1823 986.426 31.6406L988.957 28.7969ZM1000.33 45.8594L1003.27 43.8906C1005.02 45.8698 1006.32 47.5052 1007.18 48.7969L1004.05 50.9531C1002.93 49.2865 1001.69 47.5885 1000.33 45.8594ZM1002.33 24.9531H997.457V27.7969H1002.33V24.9531ZM1002.33 40.1094V37.2969H997.457V40.1094H1002.33ZM997.457 33.9219H1002.33V31.1719H997.457V33.9219Z" fill="white"/>
<g id="Group 45">
<path id="Path 2" d="M715.859 0H747.589L783.772 56.9H752.042L715.859 0Z" fill="#0099FF"/>
<path id="Path 3" d="M675.816 0H706.997L738.179 45.676H706.997L675.816 0Z" fill="#0099FF" fill-opacity="0.9"/>
<path id="Path 4" d="M640.805 0H668.499L692.375 34.975H664.681L640.805 0Z" fill="#0099FF" fill-opacity="0.8"/>
<path id="Path 5" d="M613 0H633.8L648.947 21.6H628.144L613 0Z" fill="#0099FF" fill-opacity="0.7"/>
<path id="Path 20" d="M585 0H605.8L620.947 21.6H600.144L585 0Z" fill="#0099FF" fill-opacity="0.6"/>
<path id="Path 21" d="M557 0H577.8L592.947 21.6H572.144L557 0Z" fill="#0099FF" fill-opacity="0.5"/>
<path id="Path 22" d="M530 0H550.8L565.947 21.6H545.144L530 0Z" fill="#0099FF" fill-opacity="0.4"/>
<path id="Path 23" d="M502 0H522.8L537.947 21.6H517.144L502 0Z" fill="#0099FF" fill-opacity="0.3"/>
<path id="Path 24" d="M474 0H494.8L509.947 21.6H489.144L474 0Z" fill="#0099FF" fill-opacity="0.15"/>
<path id="Path 25" d="M446 0H466.8L481.947 21.6H461.144L446 0Z" fill="#0099FF" fill-opacity="0.1"/>
</g>
<g id="Group 46">
<path id="Path 2_2" d="M1203.23 0H1171.5L1135.31 56.9H1167.04L1203.23 0Z" fill="#0099FF"/>
<path id="Path 3_2" d="M1243.27 0H1212.09L1180.91 45.676H1212.09L1243.27 0Z" fill="#0099FF" fill-opacity="0.9"/>
<path id="Path 4_2" d="M1278.28 0H1250.59L1226.71 34.975H1254.4L1278.28 0Z" fill="#0099FF" fill-opacity="0.8"/>
<path id="Path 5_2" d="M1306.09 0H1285.28L1270.14 21.6H1290.94L1306.09 0Z" fill="#0099FF" fill-opacity="0.7"/>
<path id="Path 20_2" d="M1334.09 0H1313.28L1298.14 21.6H1318.94L1334.09 0Z" fill="#0099FF" fill-opacity="0.6"/>
<path id="Path 21_2" d="M1362.09 0H1341.28L1326.14 21.6H1346.94L1362.09 0Z" fill="#0099FF" fill-opacity="0.5"/>
<path id="Path 22_2" d="M1389.09 0H1368.28L1353.14 21.6H1373.94L1389.09 0Z" fill="#0099FF" fill-opacity="0.4"/>
<path id="Path 23_2" d="M1417.09 0H1396.28L1381.14 21.6H1401.94L1417.09 0Z" fill="#0099FF" fill-opacity="0.3"/>
<path id="Path 24_2" d="M1445.09 0H1424.28L1409.14 21.6H1429.94L1445.09 0Z" fill="#0099FF" fill-opacity="0.15"/>
<path id="Path 25_2" d="M1473.09 0H1452.28L1437.14 21.6H1457.94L1473.09 0Z" fill="#0099FF" fill-opacity="0.1"/>
</g>
</g>
</g>
<defs>
<linearGradient id="paint0_linear_584_1692" x1="958.92" y1="0" x2="958.92" y2="69.9536" gradientUnits="userSpaceOnUse">
<stop stop-color="#006FB9"/>
<stop offset="1" stop-color="#00CDFF"/>
</linearGradient>
</defs>
</svg>
